<svg height="512" viewBox="0 0 56 56" width="512" xmlns="http://www.w3.org/2000/svg"><g id="Page-1" fill="none" fill-rule="evenodd"><g id="006---Degree" fill="rgb(0,0,0)" fill-rule="nonzero"><path id="Shape" d="m11.9873 55.0112c2.8555 1.0591 4.9961.9546 5.5625.7149 1.2642-4.8324 5.13-10.2125 9.9212-15.3823-.8735-.5181-1.7332-1.06-2.564-1.6467l-5.0359 5.2966c-.5426919.5746932-1.3588906.8018068-2.1204253.5900247-.7615347-.211782-1.3432963-.827667-1.5113747-1.6000247l-.2754-1.1748c-.0123228-.0527842-.0536583-.0939258-.1065-.106l-1.2119-.2207c-.7708232-.1297137-1.4069039-.6746893-1.6533-1.4165-.253332-.7523082-.0686757-1.58305.4795-2.1572l4.8463-5.0971c-.6636-.7438-1.29-1.5183-1.8934-2.31-4.9332671 4.2253833-10.30184742 7.9142206-16.0152 11.0043 2.4356 8.8785 8.2595 12.2736 11.5779 13.5055z"/><path id="Shape" d="m14.9209 39.2871c-.038552.0362475-.0512861.0922456-.0322.1416.0118693.0450635.050358.0780993.0967.083l1.2226.2222c.8412902.1544762 1.5109172.7930783 1.7051 1.6261l.2773 1.185c.003478.0523714.0400366.0966605.0908.11.0502923.0158222.1051841.0004917.14-.0391l4.8723-5.124c-1.2659606-.9989329-2.4687369-2.0754334-3.6014-3.2233z"/><path id="Shape" d="m26.62 18.1246c.3935-.411.7907-.82 1.1775-1.2359 2.0292-2.1773 3.9951-4.4785 5.8955-6.7046 1.6676-1.9517 3.3907-3.9695 5.1591-5.9063l.0079-.0112c.01-.0116.0525-.0566.083-.0886.0161-.0182.0309-.0366.0488-.0545.0134-.0133.032-.0183.046-.0307 1.1940926-.93530019 2.7756191-1.2143556 4.2177-.7442 2.3327252.65472345 4.4445838 1.92899872 6.1113 3.6875.6851067.65973489 1.2783287 1.4086538 1.7637 2.2266.6485324 1.0251442.7529081 2.3032143.2793 3.42-.5359286 1.1279912-1.8061133 1.7063457-3.0088 1.37-2.178855-.6967636-3.9380688-2.3213742-4.8057-4.438-.2302751-.50213729-.0098873-1.09587486.49225-1.32614998s1.0958749-.0098873 1.32615.49224998c.6314499 1.5691557 1.9116683 2.7878434 3.51 3.3413.266272.077046.5498422-.0450886.6768-.2915.1746048-.5353346.0954821-1.1210778-.2149-1.5909-.4004329-.66220116-.8864948-1.26866892-1.4456-1.8037-1.4087765-1.49527672-3.1948666-2.58278792-5.17-3.1479-.795912-.28677234-1.6803003-.18308824-2.3883.28l-.0017.0009c-.1578572.16887364-.2696665.37548159-.3247.6-.116022.90037076.0483416 1.81461928.4707 2.6182.8943751 2.1028775 2.1254774 4.0459445 3.6449 5.7528 2.3779 2.6934 4.5986 4.1211 6.7949 4.3692.7135347.0781669 1.4353975-.0168512 2.1044-.277.791-.5573 1.3733-.9581 1.6916-1.1749.5135736-.5844427.8448587-1.3064219.953-2.0769.6172-4.5938-3.873-9.002-5.2636-10.2437-1.2120768-1.13808297-2.5469454-2.13785931-3.98-2.9809-1.9925638-1.12760944-4.2075253-1.80604336-6.4898-1.9878-2.1513-.1724-3.4794.0156-4.3925 1.5034-3.1065191 4.9393251-6.7075652 9.5497363-10.7475 13.76.1832.3015.3623.6067.5551.9018.4174.6457.8216 1.2301 1.2235 1.7914z"/><path id="Shape" d="m15.256 28.872c-.6366-.9278-1.2378333-1.8982333-1.8037-2.9113-3.1822 2.5886-5.9707 4.4761-9.15 6.6233l-1.835 1.2417c-.04085985.0262167-.06411057.0726798-.0606.1211.24666783 1.3954752.20412231 2.8267406-.125 4.2051 4.59312444-2.6997802 8.9352348-5.8054853 12.9743-9.2799z"/><path id="Shape" d="m42.6758 15.8687c-1.662755-1.8679396-3.0098573-3.9944651-3.9883-6.2959-.213239-.48941458-.3871231-.9950495-.52-1.5121-1.0034 1.1488-1.9913 2.2963-2.9532 3.4227-1.915 2.2417-3.8955 4.56-5.9531 6.7681-.4634.4989-.9393.9906-1.4134 1.4836 3.1084377 3.9007907 6.9232711 7.1816974 11.2453 9.6714 4.1324-3.4838 8.0614-6.4793 10.99-8.6256-2.4812-.4819-4.9112-2.0855-7.4073-4.9122z"/><path id="Shape" d="m25.7256 20.2881c-.666-.87-1.3223-1.8071-2.0059-2.8657-.1083-.1658-.2088-.3414-.3143-.51-.2094.2129-.4109.4269-.6232.6393-2.4067 2.4112-5.0215 4.7976-7.7683 7.1092.7090958 1.3136323 1.4999509 2.5814585 2.3679 3.796 3.0521461 4.242826 6.9728738 7.7870019 11.5013 10.3967 2.7282-2.82 5.6842-5.5531 8.6012-8.0734-4.5496814-2.7197392-8.5402322-6.2804439-11.7587-10.4921z"/></g></g></svg>